<svg width="25" height="25" viewBox="0 0 25 25" fill="none" xmlns="http://www.w3.org/2000/svg">
<g clip-path="url(#clip0_30_1965)">
<path d="M14.3934 14.3606C14.1188 14.6554 13.7876 14.8918 13.4196 15.0557C13.0516 15.2197 12.6543 15.3079 12.2515 15.315C11.8487 15.3221 11.4486 15.248 11.075 15.0971C10.7015 14.9462 10.3622 14.7217 10.0773 14.4368C9.79241 14.1519 9.56783 13.8126 9.41695 13.439C9.26606 13.0655 9.19196 12.6653 9.19907 12.2625C9.20618 11.8597 9.29435 11.4625 9.45831 11.0945C9.62228 10.7265 9.85869 10.3953 10.1534 10.1206M18.2134 18.1806C16.504 19.4836 14.4225 20.2055 12.2734 20.2406C5.27344 20.2406 1.27344 12.2406 1.27344 12.2406C2.51733 9.92252 4.24257 7.89723 6.33344 6.30063L18.2134 18.1806ZM10.1734 4.48063C10.8618 4.31951 11.5665 4.23896 12.2734 4.24063C19.2734 4.24063 23.2734 12.2406 23.2734 12.2406C22.6664 13.3762 21.9425 14.4454 21.1134 15.4306L10.1734 4.48063Z" stroke="#52A5FC" stroke-width="2" stroke-linecap="round" stroke-linejoin="round"/>
<path d="M1.27344 1.2406L23.2734 23.2406" stroke="#52A5FC" stroke-width="2" stroke-linecap="round" stroke-linejoin="round"/>
</g>
<defs>
<clipPath id="clip0_30_1965">
<rect width="24" height="24" fill="white" transform="translate(0.273438 0.240601)"/>
</clipPath>
</defs>
</svg>
